HIERARCHY
ROOT root
{
	OFFSET	0	13.1	24.9
	CHANNELS 6  Xposition Yposition Zposition Xrotation Yrotation Zrotation
	JOINT spine_1
	{
		OFFSET	0	9.99999	0
		CHANNELS 3  Xrotation Yrotation Zrotation
		JOINT spine_2
		{
			OFFSET	0	112	-10
			CHANNELS 3  Xrotation Yrotation Zrotation
			JOINT spine_3
			{
				OFFSET	0	206.5	19.3
				CHANNELS 3  Xrotation Yrotation Zrotation
				JOINT spine_4
				{
					OFFSET	0	110.4	14.6
					CHANNELS 3  Xrotation Yrotation Zrotation
					JOINT neck_1
					{
						OFFSET	0	71.8	-50.3
						CHANNELS 3  Xrotation Yrotation Zrotation
						JOINT neck_2
						{
							OFFSET	0	86.2	-25.8
							CHANNELS 3  Xrotation Yrotation Zrotation
							JOINT head_ee
							{
								OFFSET	0	179.8	-8.7
								CHANNELS 3  Xrotation Yrotation Zrotation
								End Site
								{
									OFFSET	1	0	0
								}
							}
						}
					}
					JOINT left_clavicle
					{
						OFFSET	-43.2	22.4	-70.8
						CHANNELS 3  Xrotation Yrotation Zrotation
						JOINT left_shoulder
						{
							OFFSET	-93.9	-5.79999	48.7
							CHANNELS 3  Xrotation Yrotation Zrotation
							JOINT left_elbow
							{
								OFFSET	-291.4	-30.8	15.2
								CHANNELS 3  Xrotation Yrotation Zrotation
								JOINT left_lowarm_twist
								{
									OFFSET	-110.7	-3.89999	13.6
									CHANNELS 3  Xrotation Yrotation Zrotation
									JOINT left_hand
									{
										OFFSET	-110.7	-3.89999	13.6
										CHANNELS 3  Xrotation Yrotation Zrotation
										JOINT left_ee
										{
											OFFSET	-80.8	-5.10001	12.1
											CHANNELS 3  Xrotation Yrotation Zrotation
											End Site
											{
												OFFSET	1	0	0
											}
										}
									}
								}
							}
						}
					}
					JOINT right_clavicle
					{
						OFFSET	43.2	22.4	-70.8
						CHANNELS 3  Xrotation Yrotation Zrotation
						JOINT right_shoulder
						{
							OFFSET	93.9	-5.79999	48.7
							CHANNELS 3  Xrotation Yrotation Zrotation
							JOINT right_elbow
							{
								OFFSET	291.4	-30.8	15.2
								CHANNELS 3  Xrotation Yrotation Zrotation
								JOINT right_lowarm_twist
								{
									OFFSET	110.7	-3.89999	13.6
									CHANNELS 3  Xrotation Yrotation Zrotation
									JOINT right_hand
									{
										OFFSET	110.7	-3.89999	13.6
										CHANNELS 3  Xrotation Yrotation Zrotation
										JOINT right_ee
										{
											OFFSET	80.8	-5.10001	12.1
											CHANNELS 3  Xrotation Yrotation Zrotation
											End Site
											{
												OFFSET	1	0	0
											}
										}
									}
								}
							}
						}
					}
				}
			}
		}
	}
	JOINT left_hip
	{
		OFFSET	-82.8	-127.5	0.300001
		CHANNELS 3  Xrotation Yrotation Zrotation
		JOINT left_knee
		{
			OFFSET	-28.2	-396.7	2.2
			CHANNELS 3  Xrotation Yrotation Zrotation
			JOINT left_ankle
			{
				OFFSET	-11.7	-411.3	35.4
				CHANNELS 3  Xrotation Yrotation Zrotation
				JOINT left_toes
				{
					OFFSET	0	-60	-88.6
					CHANNELS 3  Xrotation Yrotation Zrotation
					JOINT left_foot_ee
					{
						OFFSET	-22.5	-16.5	-42.2
						CHANNELS 3  Xrotation Yrotation Zrotation
						End Site
						{
							OFFSET	1	0	0
						}
					}
				}
			}
		}
	}
	JOINT right_hip
	{
		OFFSET	82.8	-127.5	0.300001
		CHANNELS 3  Xrotation Yrotation Zrotation
		JOINT right_knee
		{
			OFFSET	28.2	-396.7	2.2
			CHANNELS 3  Xrotation Yrotation Zrotation
			JOINT right_ankle
			{
				OFFSET	11.7	-411.3	35.4
				CHANNELS 3  Xrotation Yrotation Zrotation
				JOINT right_toes
				{
					OFFSET	0	-60	-88.6
					CHANNELS 3  Xrotation Yrotation Zrotation
					JOINT right_foot_ee
					{
						OFFSET	22.5	-16.5	-42.2
						CHANNELS 3  Xrotation Yrotation Zrotation
						End Site
						{
							OFFSET	1	0	0
						}
					}
				}
			}
		}
	}
}
MOTION
Frames: 15
Frame Time: 0.02
2656.1 704.069 -1399.2 -9.62908 56.9769 7.58691 2.97133 0.0531887 0.580965 2.97152 0.0161132 0.583172 2.97162 -0.0769416 0.578298 2.97116 0.0153539 0.583192 -11.5289 17.8298 -2.28735 -12.2261 35.2503 3.04351 -0.0 0.0 -0.0 -1.55364 8.18264 -1.77518 -2.20327 -10.4132 60.9287 3.76572 -61.789 2.25377 19.329 0.271363 -2.44251 3.2466 -12.6707 16.6944 -0.0 0.0 -0.0 9.34609 27.9266 -17.1924 -33.8602 25.5712 -66.811 0.216164 6.11217 -0.0115408 11.1908 -0.257891 1.40401 6.33033 -32.8469 -54.6511 0.0 0.0 0.0 -23.0072 27.062 20.9079 6.25022 -0.307358 -0.909102 1.91982 1.39234 -0.281679 36.4998 -0.0 -0.0 -0.0 0.0 -0.0 44.5266 21.2681 -18.5068 -10.9036 -0.293142 -1.64514 -22.7496 10.9618 -3.6329 0.770353 -0.0 -0.0 0.0 0.0 0.0 
2634.36 701.134 -1401.84 -9.54678 57.1198 7.31972 3.04144 0.0407064 0.544124 3.04161 0.00600043 0.545612 3.04161 -0.0802862 0.539706 3.0412 0.00595655 0.545612 -11.8961 17.766 -2.23853 -12.647 35.1243 3.20278 -0.0 0.0 -0.0 -1.45819 7.28049 -1.74166 -3.22185 -10.7983 61.4052 3.28914 -58.4474 1.84037 17.2891 0.281846 -2.18218 3.67681 -13.5761 19.2898 -0.0 0.0 -0.0 9.46616 27.6539 -17.4904 -34.4744 26.776 -66.5441 0.215511 6.09385 -0.0114714 10.2887 -0.24732 1.28926 6.42095 -33.0921 -55.5541 0.0 0.0 0.0 -23.7647 26.9655 21.0655 5.6271 -0.272275 -0.820005 -0.0996218 1.08751 0.0147025 36.7242 -0.0 -0.0 -0.0 0.0 -0.0 44.6639 21.638 -18.2886 -13.1583 -0.314402 -1.99042 -23.4684 10.376 -3.73399 0.937038 -0.0 -0.0 0.0 0.0 0.0 
2606.61 698.233 -1404.44 -8.68386 57.9874 6.30966 2.96746 0.0631357 0.543031 2.96762 0.0284538 0.545948 2.96785 -0.0588668 0.54351 2.96744 0.027708 0.545986 -11.9497 17.1432 -2.50174 -12.6518 34.1119 2.75481 -0.0 0.0 -0.0 -1.51584 7.97347 -1.73995 -4.47542 -11.2025 62.7038 3.05187 -56.5052 1.64028 15.1601 0.282897 -1.91027 4.08334 -14.0599 21.952 -0.0 0.0 -0.0 9.26313 26.7344 -17.1419 -34.6163 27.4746 -66.4505 0.209769 5.93266 -0.01087 8.73824 -0.224937 1.09248 6.4426 -33.1079 -55.7833 0.0 0.0 0.0 -24.6381 27.1865 20.4003 1.51137 -0.0651807 -0.222755 -0.084349 -0.221034 0.012488 38.6753 -0.0 -0.0 -0.0 0.0 -0.0 44.5445 22.1683 -17.9671 -17.9606 -0.314337 -2.72702 -22.931 9.73944 -3.635 1.34474 -0.0 -0.0 0.0 0.0 0.0 
2583.65 699.647 -1407.09 -9.03612 58.0554 6.45496 3.02297 0.133609 0.506031 3.02311 0.101138 0.513507 3.02398 0.0185727 0.523042 3.02361 0.100943 0.513545 -11.6855 16.6884 -2.12698 -12.3018 32.9948 2.86402 -0.0 0.0 -0.0 -1.3294 7.82061 -1.43146 -5.19107 -10.9387 63.5557 2.5528 -51.6554 1.23575 12.5961 0.270754 -1.58303 4.48331 -15.5754 24.0523 -0.0 0.0 -0.0 9.77867 23.8905 -18.5814 -34.9583 27.4387 -63.7509 0.192114 5.43647 -0.00912114 9.1601 -0.231554 1.14596 6.49238 -31.5897 -56.6756 0.0 0.0 0.0 -24.3175 27.0271 19.3469 -0.0530777 0.00218213 0.00785297 -7.94841 -6.01509 1.2213 39.9908 -0.0 -0.0 -0.0 0.0 -0.0 43.826 22.3652 -17.9757 -20.0302 -0.29528 -3.04397 -22.5533 2.83487 -3.46182 6.49935 -0.0 -0.0 0.0 0.0 0.0 
2557.17 706.331 -1410.52 -9.30343 58.2486 6.617 2.98754 0.232394 0.650868 2.98776 0.190507 0.664336 2.98992 0.0825357 0.686164 2.98931 0.189864 0.66452 -9.73866 16.2528 -2.34371 -10.0602 32.1677 1.88085 -0.0 0.0 -0.0 -1.07808 8.05361 -0.951665 -7.02077 -11.0904 64.2583 2.31159 -48.8627 1.05022 9.83683 0.241347 -1.23185 4.51302 -17.9382 22.977 -0.0 0.0 -0.0 9.67188 23.0367 -18.4216 -34.505 28.1204 -64.1569 0.222976 6.30325 -0.0122775 8.27659 -0.217243 1.03401 6.01486 -31.6045 -51.7049 0.0 0.0 0.0 -24.7578 27.4766 19.3312 -0.955095 0.0381467 0.141606 -9.03041 -4.2319 1.37934 40.0585 -0.0 -0.0 -0.0 0.0 -0.0 42.8258 22.897 -17.6027 -22.6187 -0.255351 -3.43913 -20.233 4.04166 -3.11878 7.87473 -0.0 -0.0 0.0 0.0 0.0 
2533.02 705.468 -1417.05 -8.76315 58.1137 6.14576 2.89325 0.34083 0.698052 2.89347 0.295722 0.718324 2.89715 0.176621 0.756467 2.89647 0.293872 0.719083 -9.37396 16.7933 -2.20801 -9.67122 33.0638 2.04548 -0.0 0.0 -0.0 -1.44446 7.57127 -1.6735 -8.40835 -11.3515 65.6822 2.05098 -45.4493 0.859057 7.26147 0.198671 -0.905673 4.39464 -18.2553 21.9575 -0.0 0.0 -0.0 10.3077 22.8244 -19.8654 -33.5048 28.7738 -63.4046 0.270951 7.64479 -0.0181029 9.96842 -0.243133 1.24856 5.95332 -31.2902 -51.1548 0.0 0.0 0.0 -24.1289 27.6487 18.52 -3.28332 0.121192 0.489244 -14.4445 -6.4118 2.24201 40.1729 -0.0 -0.0 -0.0 0.0 -0.0 41.6676 23.1302 -17.3075 -24.2573 -0.22086 -3.68822 -17.7929 3.76059 -2.737 11.3424 -0.0 -0.0 0.0 0.0 0.0 
2512.96 709.607 -1421.05 -8.72355 58.3167 6.02095 2.65478 0.40413 0.741548 2.65502 0.356126 0.765759 2.65977 0.225268 0.813918 2.65902 0.35098 0.768131 -8.97791 16.7265 -1.60145 -9.22023 32.4901 2.48992 -0.0 0.0 -0.0 -1.23949 7.78562 -1.27668 -10.2355 -10.3886 66.0617 1.90258 -43.2994 0.755252 7.57726 0.204693 -0.945563 5.0145 -25.5747 21.9993 -0.0 0.0 -0.0 10.519 22.3744 -20.3802 -32.9127 29.234 -62.4554 0.335413 9.43392 -0.0276759 9.01271 -0.229287 1.12727 5.7623 -32.2218 -49.2743 0.0 0.0 0.0 -22.6626 26.6319 16.9477 -7.62468 0.238022 1.14509 -18.9188 -7.20577 2.9564 40.2148 -0.0 -0.0 -0.0 0.0 -0.0 41.1171 23.2621 -17.1854 -26.1765 -0.171425 -3.97857 -16.8498 2.77417 -2.58104 13.2754 -0.0 -0.0 0.0 0.0 0.0 
2486.43 710.671 -1426.56 -7.23003 57.7128 4.28786 2.54483 0.470275 0.785364 2.54508 0.419349 0.813695 2.55105 0.278095 0.87213 2.55023 0.412337 0.817271 -9.73122 16.8634 -1.07055 -10.0787 32.4694 3.28604 -0.0 0.0 -0.0 -1.17488 6.77059 -1.3077 -12.6445 -10.685 67.1714 1.63539 -39.0086 0.579294 6.61779 0.185718 -0.824468 4.19873 -24.6213 17.0343 -0.0 0.0 -0.0 11.086 21.8104 -21.7097 -32.0977 29.7043 -61.815 0.373858 10.4924 -0.0343278 6.67271 -0.186859 0.831392 5.58901 -32.2464 -47.7458 0.0 0.0 0.0 -21.7126 25.9264 16.2919 -11.6111 0.301277 1.7534 -20.6934 -7.84158 3.24586 40.1373 -0.0 -0.0 -0.0 0.0 -0.0 38.2698 23.031 -16.6846 -28.5182 -0.0979646 -4.33042 -10.037 2.63634 -1.52617 16.1579 -0.0 -0.0 0.0 0.0 0.0 
2457.96 714.977 -1433.03 -5.11731 57.0285 2.38102 2.39783 0.635328 0.895788 2.3981 0.577042 0.934397 2.40758 0.410984 1.01841 2.40658 0.566658 0.94073 -8.06944 17.06 -2.3241 -8.1904 33.5172 1.56733 -0.0 0.0 -0.0 -1.15113 8.6235 -0.999273 -13.9741 -10.0791 67.9551 1.44396 -35.5739 0.463264 4.42349 0.134717 -0.548822 4.60687 -24.843 19.6632 -0.0 0.0 -0.0 11.1797 21.641 -21.9363 -30.9391 30.9397 -62.902 0.431471 12.065 -0.045597 8.47622 -0.220628 1.05929 5.77046 -32.3003 -49.3381 0.0 0.0 0.0 -20.7391 25.3524 15.6359 -13.4096 0.315929 2.02894 -23.1982 -7.52603 3.6333 39.439 -0.0 -0.0 -0.0 0.0 -0.0 34.1557 24.0642 -15.7093 -27.0766 -0.144891 -4.11416 -8.10659 3.8298 -1.23449 19.5716 -0.0 -0.0 0.0 0.0 0.0 
2436.28 719.601 -1435.89 -4.29452 57.0312 1.8278 2.31789 0.67159 1.01509 2.31826 0.605639 1.05577 2.32951 0.417132 1.14343 2.32817 0.592471 1.06321 -9.83342 17.0975 -1.67212 -10.2103 33.322 2.80523 -0.0 0.0 -0.0 -1.48016 8.57346 -1.58598 -16.3477 -7.85584 69.2804 1.29507 -32.6804 0.379707 4.12474 0.126957 -0.511447 4.67889 -28.1972 18.1157 -0.0 0.0 -0.0 12.1288 22.9899 -23.9855 -30.2842 30.4316 -61.8329 0.431054 12.0536 -0.0455098 10.2366 -0.246655 1.28264 5.65369 -32.2722 -48.3054 0.0 0.0 0.0 -17.3659 23.1044 13.5968 -18.831 0.307717 2.86041 -21.9663 -11.7855 3.52632 37.5152 -0.0 -0.0 -0.0 0.0 -0.0 32.0019 23.8286 -15.3695 -28.288 -0.105822 -4.29597 -4.20053 1.59856 -0.630194 17.6489 -0.0 -0.0 0.0 0.0 0.0 
2409.9 721.713 -1437.07 -3.26803 55.4018 0.465238 2.31862 0.681359 1.17362 2.31919 0.605304 1.21459 2.3321 0.389843 1.29985 2.33023 0.590222 1.22199 -9.04451 16.9233 -2.49422 -9.29889 33.4716 1.69143 -0.0 0.0 -0.0 -1.49907 9.26419 -1.5145 -18.6351 -7.90073 70.4915 1.10791 -28.7582 0.28404 3.35582 0.106091 -0.415444 4.71049 -28.1257 18.3686 -0.0 0.0 -0.0 11.5402 24.524 -22.4914 -28.1235 32.3438 -63.6564 0.539755 14.9697 -0.0709153 10.1066 -0.244967 1.26612 5.49531 -31.9034 -46.9745 0.0 0.0 0.0 -15.2753 24.0048 11.9393 -24.4758 0.215723 3.72135 -21.164 -15.8533 3.49886 35.3766 -0.0 -0.0 -0.0 0.0 -0.0 27.5318 24.3331 -13.8355 -27.175 -0.141861 -4.12896 1.09377 0.946647 0.161772 17.2652 -0.0 -0.0 0.0 0.0 0.0 
2387.57 721.232 -1443.02 -2.19782 53.674 -0.168736 2.40224 0.684974 1.10726 2.40271 0.613133 1.14859 2.41507 0.410574 1.23556 2.41345 0.600542 1.15523 -10.2345 17.0668 -2.70514 -10.6706 33.9814 1.93438 -0.0 0.0 -0.0 -1.66648 10.0134 -1.69015 -20.0385 -6.6471 71.6827 0.835973 -22.4951 0.166251 3.78112 0.117792 -0.468511 4.52728 -27.3134 17.6503 -0.0 0.0 -0.0 11.4018 26.2058 -21.9972 -24.1959 34.76 -64.4531 0.624417 17.1879 -0.0943675 9.64787 -0.238714 1.20786 5.47342 -32.1184 -46.7708 0.0 0.0 0.0 -12.4763 23.0244 10.33 -30.5699 0.0218171 4.63607 -21.2202 -19.7043 3.62763 34.5992 -0.0 -0.0 -0.0 0.0 -0.0 24.0111 24.1833 -13.789 -26.1684 -0.171654 -3.97735 9.6344 1.19591 1.38864 16.6506 -0.0 -0.0 0.0 0.0 0.0 
2362.1 724.553 -1445.97 -1.06637 53.0673 -0.623001 2.56163 0.601511 1.11706 2.56217 0.529215 1.15307 2.57282 0.330458 1.22491 2.57111 0.51975 1.15737 -10.7297 17.388 -2.55179 -11.2634 34.5252 2.35572 -0.0 0.0 -0.0 -2.17642 12.0194 -2.23454 -22.1807 -5.83801 72.902 0.723745 -19.7239 0.12582 4.28494 0.131143 -0.531484 4.42266 -27.0217 17.1311 -0.0 0.0 -0.0 11.2815 27.4369 -21.5823 -20.9417 36.3431 -64.8878 0.676518 18.5275 -0.110346 8.60177 -0.222711 1.07519 5.2372 -31.7962 -44.8405 0.0 0.0 0.0 -10.6066 22.3576 8.90478 -35.1812 -0.188995 5.31202 -21.7289 -20.8477 3.75589 32.3717 -0.0 -0.0 -0.0 0.0 -0.0 20.5318 23.1649 -12.5783 -25.4745 -0.190636 -3.87255 13.6788 2.71234 1.94991 13.1941 -0.0 -0.0 0.0 0.0 0.0 
2348.83 725.0 -1446.85 -0.572544 52.0087 -1.32114 2.48844 0.566267 1.20135 2.48911 0.488681 1.23494 2.49964 0.275229 1.29927 2.4976 0.476955 1.23951 -12.0209 17.4111 -2.01024 -12.7523 34.3153 3.33904 -0.0 0.0 -0.0 -2.13878 12.0198 -2.17104 -23.1058 -5.17481 74.0304 0.519802 -14.4399 0.0658505 4.29889 0.131504 -0.53323 4.27112 -26.281 16.5613 -0.0 0.0 -0.0 11.1441 28.0238 -21.2013 -18.3555 37.5541 -64.785 0.747934 20.3299 -0.134104 9.31522 -0.233889 1.16564 5.43451 -31.8096 -46.4677 0.0 0.0 0.0 -8.78353 22.1017 7.99238 -37.9837 -0.343502 5.71394 -21.4128 -23.5355 3.80658 33.1211 -0.0 -0.0 -0.0 0.0 -0.0 18.7286 23.8193 -12.0292 -24.9767 -0.203469 -3.79725 16.4381 0.888821 2.30389 15.0737 -0.0 -0.0 0.0 0.0 0.0 
2330.98 730.021 -1450.85 0.384261 50.8715 -1.77554 2.47822 0.745737 1.15902 2.47872 0.670481 1.20411 2.49288 0.459517 1.29933 2.49113 0.65894 1.21047 -13.1624 17.5687 -2.5185 -14.1054 34.9975 3.33255 -0.0 0.0 -0.0 -2.31671 14.0126 -2.12469 -24.5254 -5.41146 74.2883 0.423219 -11.8408 0.043888 4.21624 0.129355 -0.52289 4.15159 -25.156 16.4132 -0.0 0.0 -0.0 10.9652 28.4596 -20.7447 -15.7066 38.677 -65.4511 0.870061 23.3159 -0.179519 8.65062 -0.223512 1.08138 5.36763 -31.7941 -45.9101 0.0 0.0 0.0 -4.66073 22.1961 3.51168 -40.6422 -0.508126 6.08793 -20.7779 -27.7314 3.88322 33.3013 -0.0 -0.0 -0.0 0.0 -0.0 16.1428 23.9585 -11.5423 -23.703 -0.233326 -3.60406 17.5953 1.78541 2.45922 13.8281 -0.0 -0.0 0.0 0.0 0.0 
